<?xml version="1.0" encoding="UTF-8" standalone="no"?>
<svg
   width="320"
   height="127.5"
   viewBox="0 0 320 127.5"
   version="1.1"
   id="svg1"
   sodipodi:docname="logo.svg"
   inkscape:version="1.3 (0e150ed, 2023-07-21)"
   inkscape:export-filename="logo.svg"
   inkscape:export-xdpi="96"
   inkscape:export-ydpi="96"
   xmlns:inkscape="http://www.inkscape.org/namespaces/inkscape"
   xmlns:sodipodi="http://sodipodi.sourceforge.net/DTD/sodipodi-0.dtd"
   xmlns="http://www.w3.org/2000/svg"
   xmlns:svg="http://www.w3.org/2000/svg">
  <defs
     id="defs1" />
  <sodipodi:namedview
     id="namedview1"
     pagecolor="#ffffff"
     bordercolor="#000000"
     borderopacity="0.25"
     inkscape:showpageshadow="2"
     inkscape:pageopacity="0.0"
     inkscape:pagecheckerboard="0"
     inkscape:deskcolor="#d1d1d1"
     inkscape:zoom="0.97031245"
     inkscape:cx="46.376814"
     inkscape:cy="23.188407"
     inkscape:window-width="1312"
     inkscape:window-height="894"
     inkscape:window-x="2748"
     inkscape:window-y="292"
     inkscape:window-maximized="0"
     inkscape:current-layer="svg1" />
  <path
     id="path1"
     d="m 175,0 c 0,20 0,40 0,60 16.66667,0 33.33333,0 50,0 0,6.666667 0,13.333333 0,20 5,0 10,0 15,0 0,-6.666667 0,-13.333333 0,-20 5,0 10,0 15,0 0,15 0,29.999999 0,45 5,0 10,0 15,0 0,-15.000001 0,-30 0,-45 11.66667,0 23.33333,0 35,0 0,15 0,29.999999 0,45 5,0 10,0 15,0 0,-20.000001 0,-40 0,-60 -16.66667,0 -33.33333,0 -50,0 0,-6.666016 0,-13.332031 0,-19.998047 -5,0 -10,0 -15,0 0,6.666016 0,13.332031 0,19.998047 -5,0 -10,0 -15,0 0,-15 0,-30 0,-45 -21.66667,0 -43.33333,0 -65,0 z M 0,12.5 c 0,38.333333 0,76.666669 0,115 33.333333,0 66.666667,0 100,0 0,-5 0,-10 0,-15 -28.333333,0 -56.666667,0 -85,0 0,-7.5 0,-15.000001 0,-22.500001 15,0 30,0 45,0 C 60,84.999999 60,80 60,75 c -15,0 -30,0 -45,0 0,-15.833333 0,-31.666667 0,-47.5 28.333333,0 56.666667,0 85,0 0,-5 0,-10 0,-15 -33.333333,0 -66.666667,0 -100,0 z m 115,0 c 0,20.833333 0,41.666667 0,62.5 -13.33333,0 -26.66667,0 -40,0 0,5 0,9.999999 0,14.999999 13.33333,0 26.66667,0 40,0 C 115,102.5 115,115 115,127.5 c 5,0 10,0 15,0 0,-12.5 0,-25 0,-37.500001 5,0 10,0 15,0 C 145,102.5 145,115 145,127.5 c 5,0 10,0 15,0 0,-12.5 0,-25 0,-37.500001 11.66667,0 23.33333,0 35,0 C 195,102.5 195,115 195,127.5 c 5,0 10,0 15,0 0,-17.5 0,-35.000001 0,-52.5 -16.66667,0 -33.33333,0 -50,0 0,-20.833333 0,-41.666667 0,-62.5 -5,0 -10,0 -15,0 0,20.833333 0,41.666667 0,62.5 -5,0 -10,0 -15,0 0,-20.833333 0,-41.666667 0,-62.5 -5,0 -10,0 -15,0 z m 75,2.5 c 11.66667,0 23.33333,0 35,0 0,10 0,20 0,30 -11.66667,0 -23.33333,0 -35,0 0,-10 0,-20 0,-30 z" />
</svg>
